<svg width="56" height="56" fill="none" xmlns="http://www.w3.org/2000/svg"><path d="M32.375 46.594h-8.75a1.094 1.094 0 1 0 0 2.187h8.75a1.094 1.094 0 0 0 0-2.187zm-19.44-32.076H8.742v6.501l-1.483.006.007 1.986 1.476-.006v1.218l-1.483.006.007 1.986 1.476-.006V28h1.986v-1.798c.919-.003 3.2-.005 3.2-.005V24.21s-2.282.003-3.2.006v-1.219l2.207-.005a4.31 4.31 0 0 0 3.019-1.232 4.169 4.169 0 0 0 1.282-3.005c0-1.133-.455-2.2-1.282-3.006a4.306 4.306 0 0 0-3.019-1.232zm0 6.489l-2.207.005v-4.508h2.207c1.255 0 2.315 1.031 2.315 2.252 0 1.22-1.06 2.25-2.315 2.25zM43.969 28a6.57 6.57 0 0 0-6.563 6.563 6.57 6.57 0 0 0 6.563 6.562 6.57 6.57 0 0 0 6.562-6.563A6.57 6.57 0 0 0 43.97 28zm0 10.938a4.38 4.38 0 0 1-4.375-4.376 4.38 4.38 0 0 1 4.375-4.374 4.38 4.38 0 0 1 4.375 4.375 4.38 4.38 0 0 1-4.375 4.374z" fill="#F8CA21"/><path d="M43.969 22.531c-.595 0-1.179.044-1.75.128V6.125a3.285 3.285 0 0 0-3.282-3.281H17.064a3.285 3.285 0 0 0-3.282 3.281v3.409a12.072 12.072 0 0 0-1.75-.128C5.397 9.406 0 14.803 0 21.437S5.397 33.47 12.031 33.47c.595 0 1.179-.044 1.75-.128v16.534a3.285 3.285 0 0 0 3.281 3.281h21.875a3.285 3.285 0 0 0 3.282-3.281v-3.409c.571.084 1.155.128 1.75.128C50.603 46.594 56 41.196 56 34.562c0-6.633-5.397-12.03-12.031-12.03zM22.53 5.031h10.94V7.22H22.53V5.03zm-10.5 26.25c-5.428 0-9.844-4.416-9.844-9.843 0-5.428 4.416-9.844 9.844-9.844 5.428 0 9.844 4.416 9.844 9.844 0 5.427-4.416 9.843-9.844 9.843zm28 18.594c0 .603-.49 1.094-1.093 1.094H17.061c-.603 0-1.093-.49-1.093-1.094V32.806c4.706-1.634 8.094-6.113 8.094-11.368 0-5.256-3.388-9.735-8.094-11.37V6.126c0-.603.49-1.094 1.094-1.094h3.28v3.282c0 .603.49 1.093 1.095 1.093h13.125c.603 0 1.093-.49 1.093-1.094v-3.28h3.282c.603 0 1.093.49 1.093 1.093v17.069c-4.706 1.634-8.093 6.113-8.093 11.369 0 5.255 3.387 9.734 8.093 11.368v3.944zm3.938-5.469c-5.428 0-9.844-4.416-9.844-9.843 0-5.428 4.416-9.844 9.844-9.844 5.428 0 9.843 4.416 9.843 9.843 0 5.428-4.415 9.844-9.843 9.844z" fill="#F8CA21"/><path d="M26.906 22.531h9.844a1.094 1.094 0 0 0 .773-1.867l-3.28-3.281a1.094 1.094 0 0 0-1.548 1.547l1.414 1.414h-7.203a1.094 1.094 0 1 0 0 2.187zm-3.601 16.086a1.094 1.094 0 0 0 0-1.547l-1.414-1.414h7.203a1.094 1.094 0 0 0 0-2.187H19.25a1.094 1.094 0 0 0-.773 1.867l3.28 3.281a1.09 1.09 0 0 0 1.548 0z" fill="#F8CA21"/></svg>