<svg width="56" height="56" fill="none" xmlns="http://www.w3.org/2000/svg"><g clip-path="url(#clip0)" fill-rule="evenodd" clip-rule="evenodd" fill="#F8CA21"><path d="M43.474 4.408h9.579c1.62 0 2.947 1.336 2.947 2.968v38.068l-2.21-1.94V17.701H24.373l-2.537-2.225h31.952v-8.1a.75.75 0 0 0-.736-.742h-9.58v4.125a1.11 1.11 0 0 1-1.105 1.112 1.11 1.11 0 0 1-1.105-1.112V6.634H14.728V9.24l-2.21-1.939v-.667h-.761L9.22 4.408h3.297V1.113A1.11 1.11 0 0 1 13.623 0c.61 0 1.105.498 1.105 1.113v3.295h26.535V1.113A1.11 1.11 0 0 1 42.368 0c.61 0 1.106.498 1.106 1.113v3.295zM0 10.116v42.192c0 1.632 1.326 2.968 2.947 2.968h48.535l-2.536-2.226H2.947a.75.75 0 0 1-.736-.742V17.701h6.437L6.11 15.476h-3.9v-3.421L0 10.115z"/><path d="M42.85 33.908h3.218a1.11 1.11 0 0 0 1.105-1.114 1.11 1.11 0 0 0-1.105-1.113H40.91a1.1 1.1 0 0 0-.476.108l2.415 2.119zm-7.56-6.632h.461a1.11 1.11 0 0 0 1.106-1.113 1.11 1.11 0 0 0-1.106-1.114h-3l2.538 2.227zm-10.705 4.405h-4.306a1.11 1.11 0 0 0-1.105 1.113 1.11 1.11 0 0 0 1.105 1.114h5.156c.432 0 .806-.25.988-.614l-1.838-1.613zm7.56 6.632h-1.552a1.11 1.11 0 0 0-1.105 1.113 1.11 1.11 0 0 0 1.105 1.113h4.09l-2.538-2.226zM46.069 25.05H40.91a1.11 1.11 0 0 0-1.105 1.114 1.11 1.11 0 0 0 1.105 1.113h5.158a1.11 1.11 0 0 0 1.105-1.113 1.11 1.11 0 0 0-1.105-1.114zm-31.685 6.632H9.225a1.11 1.11 0 0 0-1.105 1.113 1.11 1.11 0 0 0 1.105 1.114h5.158a1.11 1.11 0 0 0 1.106-1.114 1.11 1.11 0 0 0-1.106-1.113zm5.896 6.632h5.156c.61 0 1.106.498 1.106 1.113a1.11 1.11 0 0 1-1.106 1.113H20.28a1.11 1.11 0 0 1-1.105-1.113 1.11 1.11 0 0 1 1.105-1.113zm-5.896 0H9.225a1.11 1.11 0 0 0-1.105 1.113 1.11 1.11 0 0 0 1.105 1.113h5.158a1.11 1.11 0 0 0 1.106-1.113 1.11 1.11 0 0 0-1.106-1.113zm-5.158 6.632h5.158c.61 0 1.105.498 1.106 1.113a1.11 1.11 0 0 1-1.106 1.113H9.225a1.11 1.11 0 0 1-1.105-1.113 1.11 1.11 0 0 1 1.105-1.113zm15.474 0h-5.156a1.11 1.11 0 0 0-1.105 1.113 1.11 1.11 0 0 0 1.105 1.113H24.7a1.11 1.11 0 0 0 1.105-1.113 1.11 1.11 0 0 0-1.105-1.113zm5.157 0h5.158c.61 0 1.105.498 1.105 1.113a1.11 1.11 0 0 1-1.105 1.113h-5.158a1.11 1.11 0 0 1-1.105-1.113 1.11 1.11 0 0 1 1.105-1.113zM.684 3.369a1.037 1.037 0 0 1 1.464-.096L55.16 49.775a1.037 1.037 0 1 1-1.368 1.56L.78 4.832a1.037 1.037 0 0 1-.096-1.463z"/></g><defs><clipPath id="clip0"><path fill="#fff" d="M0 0h56v56H0z"/></clipPath></defs></svg>