<svg width="56" height="56" fill="none" xmlns="http://www.w3.org/2000/svg"><g clip-path="url(#clip0)"><path d="M53.053 4.408h-9.58V1.113A1.11 1.11 0 0 0 42.369 0a1.11 1.11 0 0 0-1.105 1.113v3.295H14.728V1.113A1.11 1.11 0 0 0 13.623 0a1.11 1.11 0 0 0-1.105 1.113v3.295h-9.57C1.325 4.408 0 5.744 0 7.376v44.932c0 1.632 1.326 2.968 2.947 2.968h50.106c1.62 0 2.947-1.336 2.947-2.968V7.376c0-1.632-1.327-2.968-2.947-2.968zm.736 47.9a.75.75 0 0 1-.736.742H2.947a.75.75 0 0 1-.736-.742V17.701h51.578v34.607zm0-36.832H2.211v-8.1c0-.403.336-.742.736-.742h9.57v4.125a1.11 1.11 0 0 0 1.106 1.112 1.11 1.11 0 0 0 1.105-1.112V6.634h26.535v4.125a1.11 1.11 0 0 0 1.105 1.112 1.11 1.11 0 0 0 1.106-1.112V6.634h9.579a.75.75 0 0 1 .736.742v8.1z" fill="#F8CA21"/><path d="M25.436 25.05H20.28a1.11 1.11 0 0 0-1.106 1.113 1.11 1.11 0 0 0 1.106 1.113h5.156a1.11 1.11 0 0 0 1.105-1.113 1.11 1.11 0 0 0-1.105-1.114zm10.315 0h-5.157a1.11 1.11 0 0 0-1.106 1.113 1.11 1.11 0 0 0 1.105 1.113h5.158a1.11 1.11 0 0 0 1.106-1.113 1.11 1.11 0 0 0-1.106-1.114zm10.316 0H40.91a1.11 1.11 0 0 0-1.105 1.113 1.11 1.11 0 0 0 1.105 1.113h5.158a1.11 1.11 0 0 0 1.106-1.113 1.11 1.11 0 0 0-1.106-1.114zm-20.631 6.631H20.28a1.11 1.11 0 0 0-1.106 1.113 1.11 1.11 0 0 0 1.106 1.114h5.156a1.11 1.11 0 0 0 1.105-1.114 1.11 1.11 0 0 0-1.105-1.113zm10.315 0h-5.157a1.11 1.11 0 0 0-1.106 1.113 1.11 1.11 0 0 0 1.105 1.114h5.158a1.11 1.11 0 0 0 1.106-1.114 1.11 1.11 0 0 0-1.106-1.113zm10.316 0H40.91a1.11 1.11 0 0 0-1.105 1.113 1.11 1.11 0 0 0 1.105 1.114h5.158a1.11 1.11 0 0 0 1.106-1.114 1.11 1.11 0 0 0-1.106-1.113zm-31.683 0H9.226a1.11 1.11 0 0 0-1.105 1.113 1.11 1.11 0 0 0 1.105 1.114h5.158a1.11 1.11 0 0 0 1.105-1.114 1.11 1.11 0 0 0-1.105-1.113zm11.052 6.632H20.28a1.11 1.11 0 0 0-1.106 1.113 1.11 1.11 0 0 0 1.106 1.113h5.156a1.11 1.11 0 0 0 1.105-1.113 1.11 1.11 0 0 0-1.105-1.113zm10.315 0h-5.157a1.11 1.11 0 0 0-1.106 1.113 1.11 1.11 0 0 0 1.105 1.113h5.158a1.11 1.11 0 0 0 1.106-1.113 1.11 1.11 0 0 0-1.106-1.113zm10.316 0H40.91a1.11 1.11 0 0 0-1.105 1.113 1.11 1.11 0 0 0 1.105 1.113h5.158a1.11 1.11 0 0 0 1.106-1.113 1.11 1.11 0 0 0-1.106-1.113zm-31.683 0H9.226a1.11 1.11 0 0 0-1.105 1.113 1.11 1.11 0 0 0 1.105 1.113h5.158a1.11 1.11 0 0 0 1.105-1.113 1.11 1.11 0 0 0-1.105-1.113zm0 6.632H9.226a1.11 1.11 0 0 0-1.105 1.113 1.11 1.11 0 0 0 1.105 1.113h5.158a1.11 1.11 0 0 0 1.105-1.113 1.11 1.11 0 0 0-1.105-1.113zm10.316 0h-5.157a1.11 1.11 0 0 0-1.105 1.113 1.11 1.11 0 0 0 1.105 1.113h5.156a1.11 1.11 0 0 0 1.105-1.113 1.11 1.11 0 0 0-1.105-1.113zm10.314 0h-5.158a1.11 1.11 0 0 0-1.105 1.113 1.11 1.11 0 0 0 1.105 1.113h5.158a1.11 1.11 0 0 0 1.105-1.113 1.11 1.11 0 0 0-1.105-1.113z" fill="#F8CA21"/><path fill-rule="evenodd" clip-rule="evenodd" d="M55.616 58.902L-2.074 8.296 4.764.5l57.69 50.606-6.838 7.796z" fill="#fff"/><path fill-rule="evenodd" clip-rule="evenodd" d="M.684 3.369a1.037 1.037 0 0 1 1.463-.096L55.16 49.775a1.037 1.037 0 1 1-1.367 1.56L.78 4.832a1.037 1.037 0 0 1-.096-1.463z" fill="#F8CA21"/></g><defs><clipPath id="clip0"><path fill="#fff" d="M0 0h56v56H0z"/></clipPath></defs></svg>