<svg width="896" height="445" fill="none" xmlns="http://www.w3.org/2000/svg"><path d="M618.555 258.55c0-5.085 1.695-10.17 1.695-16.95 0-37.29-30.51-67.8-67.8-67.8-27.12 0-49.155 15.255-61.02 37.29-3.39-1.695-10.17-3.39-15.255-3.39-23.73 0-42.375 18.645-42.375 42.375 0 3.39 0 6.78 1.695 8.475-30.51 5.085-52.545 28.815-52.545 59.325 0 32.205 27.12 59.325 59.325 59.325h169.5c32.205 0 59.325-27.12 59.325-59.325 0-30.51-22.035-55.935-52.545-59.325z" fill="#F8CA21"/><path d="M618.555 258.55c0-5.085 1.695-10.17 1.695-16.95 0-37.29-30.51-67.8-67.8-67.8-27.12 0-49.155 15.255-61.02 37.29-3.39-1.695-10.17-3.39-15.255-3.39-23.73 0-42.375 18.645-42.375 42.375 0 3.39 0 6.78 1.695 8.475-30.51 5.085-52.545 28.815-52.545 59.325 0 32.205 27.12 59.325 59.325 59.325h169.5c32.205 0 59.325-27.12 59.325-59.325 0-30.51-22.035-55.935-52.545-59.325z" fill="url(#paint0_linear)"/><g opacity=".5" clip-path="url(#clip0)" fill="#fff"><path d="M527 285.992a1.874 1.874 0 1 0 0-3.748 1.874 1.874 0 0 0 0 3.748zm6.647-5.351a7.777 7.777 0 0 0-6.647-3.715 7.777 7.777 0 0 0-6.647 3.715.718.718 0 0 0 .239.988.689.689 0 0 0 .375.102.763.763 0 0 0 .614-.34 6.3 6.3 0 0 1 5.419-3.034c2.216.034 4.261 1.159 5.419 3.034a.72.72 0 0 0 1.228-.75z"/><path d="M538.009 276.551A12.874 12.874 0 0 0 527 270.416a12.875 12.875 0 0 0-11.009 6.135.717.717 0 0 0 .238.988.691.691 0 0 0 .375.102.763.763 0 0 0 .614-.34 11.476 11.476 0 0 1 9.782-5.454c4.022 0 7.669 2.045 9.782 5.454a.72.72 0 0 0 1.227-.75z"/><path d="M541.895 272.29c-3.238-5.181-8.794-8.282-14.895-8.282-6.101 0-11.657 3.101-14.895 8.282a.719.719 0 0 0 .239.989.685.685 0 0 0 .374.102.76.76 0 0 0 .614-.341A16.036 16.036 0 0 1 527 265.473c5.59 0 10.703 2.829 13.668 7.601a.719.719 0 0 0 .988.239c.341-.239.444-.682.239-1.023z"/></g><path d="M427.283 333c4.17 0 6.672-2.051 6.672-5.414 0-2.734-1.9-4.58-4.621-4.908v-.096c2.092-.383 3.609-2.256 3.609-4.443 0-2.912-2.31-4.868-5.701-4.868h-7.26V333h7.301zm-5.441-18.074h5.004c2.625 0 4.211 1.271 4.211 3.418 0 2.324-1.764 3.691-4.758 3.691h-4.457v-7.109zm0 16.42v-7.698h4.935c3.405 0 5.264 1.381 5.264 3.842 0 2.448-1.791 3.856-5.004 3.856h-5.195zM438.48 333l8.272-11.908h.082V333h1.791v-14.725h-1.791l-8.272 11.909h-.082v-11.909h-1.791V333h1.791zm20.508-14.889c-2.338 0-4.32 1.34-5.099 3.213h-.041v-3.049h-1.709v19.606h1.804v-7.916h.041c.821 1.914 2.666 3.199 5.032 3.199 3.705 0 6.248-3.035 6.248-7.533 0-4.485-2.557-7.52-6.276-7.52zm-.314 13.426c-2.803 0-4.744-2.392-4.744-5.906 0-3.486 1.941-5.906 4.744-5.906 2.844 0 4.744 2.379 4.744 5.92s-1.9 5.892-4.744 5.892zm19.578-13.262h-11.854v1.518h5.032V333h1.791v-13.207h5.031v-1.518zm3.432 19.934c2.378 0 3.404-.957 4.689-4.402l5.783-15.532h-1.914l-4.525 12.893h-.041l-4.512-12.893h-1.941l5.537 14.821-.356.998c-.683 1.886-1.394 2.556-2.748 2.556-.287 0-.656-.041-.875-.095v1.558c.219.041.615.096.903.096zm17.048-6.631c-2.05 0-3.445-1.08-3.445-2.666 0-1.654 1.313-2.611 3.787-2.775l4.307-.301v1.627c0 2.324-2.01 4.115-4.649 4.115zm-.355 1.586c2.256 0 4.252-1.189 5.045-2.98h.041V333h1.723v-10.035c0-2.967-2.147-4.854-5.524-4.854-3.09 0-5.414 1.832-5.564 4.416h1.736c.328-1.75 1.764-2.802 3.814-2.802 2.379 0 3.733 1.244 3.733 3.39v1.258l-4.526.301c-3.527.246-5.414 1.709-5.414 4.224 0 2.543 1.997 4.266 4.936 4.266zm13.603-6.494c.082-.82.452-6.111.493-6.877h5.947V333h1.791v-14.725h-9.365c-.041.807-.492 7.479-.575 8.327-.218 2.871-.765 4.839-2.296 4.839-.37 0-.657-.082-.739-.109v1.654c.11.041.397.137.821.137 2.816 0 3.623-2.652 3.923-6.453zm16.749-1.859c2.146 0 3.541 1.298 3.541 3.335 0 2.01-1.381 3.336-3.541 3.336h-3.186v-6.671h3.186zM523.752 333h4.977c3.24 0 5.345-1.887 5.345-4.854 0-2.98-2.105-4.867-5.345-4.867h-3.186v-5.004h-1.791V333zm22.996 0h1.791v-14.725h-1.791v6.317h-8.162v-6.317h-1.791V333h1.791v-6.891h8.162V333zm10.035-1.422c-2.051 0-3.445-1.08-3.445-2.666 0-1.654 1.312-2.611 3.787-2.775l4.307-.301v1.627c0 2.324-2.01 4.115-4.649 4.115zm-.355 1.586c2.256 0 4.252-1.189 5.045-2.98h.041V333h1.722v-10.035c0-2.967-2.146-4.854-5.523-4.854-3.09 0-5.414 1.832-5.565 4.416h1.737c.328-1.75 1.763-2.802 3.814-2.802 2.379 0 3.733 1.244 3.733 3.39v1.258l-4.526.301c-3.527.246-5.414 1.709-5.414 4.224 0 2.543 1.996 4.266 4.936 4.266zm15.176-7.246c-2.147 0-3.542-1.217-3.542-2.994 0-1.942 1.381-3.131 3.542-3.131h3.322v6.125h-3.322zm3.322 7.082h1.791v-14.725h-5.113c-3.254 0-5.333 1.778-5.333 4.69 0 2.16 1.395 3.705 3.678 4.17L565.643 333h2.105l4.047-5.564h3.131V333zm24.855 0h1.969l-7.369-19.729h-1.86L585.139 333h1.982l2.188-6.043h8.285l2.187 6.043zm-6.371-17.418h.082l3.541 9.762h-7.164l3.541-9.762zM608.75 333v-18.033h6.604v-1.696h-15.081v1.696h6.604V333h1.873zm15.777.314c4.211 0 7.205-2.228 7.957-5.933h-1.9c-.629 2.598-2.967 4.197-6.043 4.197-4.197 0-6.891-3.295-6.891-8.49 0-5.127 2.694-8.395 6.877-8.395 2.994 0 5.469 1.901 6.071 4.608h1.9c-.602-3.733-3.869-6.344-7.971-6.344-5.359 0-8.791 3.951-8.791 10.131 0 6.248 3.418 10.226 8.791 10.226z" fill="#fff"/><path d="M159 124c1.027 41.083 40.066 127.6 188 145M795.5 61c-1.027 41.083-4 126-118.5 167.5" stroke="#BDBDBD" stroke-dasharray="5 5"/><g filter="url(#filter0_d)"><g clip-path="url(#clip1)"><rect x="693.185" y="14" width="180" height="29" rx="14.5" transform="rotate(6.304 693.185 14)" fill="#E0E0E0"/><path d="M712.005 32.467l3.261.36.168-1.513-3.262-.36.379-3.433-1.537-.17-.379 3.432-3.262-.36-.167 1.514 3.262.36-.387 3.503 1.537.17.387-3.503zm5.246 4.313l1.824.202 5.941-9.16.166-1.507-7.625-.843-.162 1.468 5.909.653-.004.038-6.049 9.15zm15.658 3.907c-.667-1.512-1.528-3.674-1.158-7.029.374-3.377 1.823-5.536 2.655-6.317l-1.475-.163c-1.248 1.262-2.518 2.874-2.897 6.306-.379 3.425.521 5.74 1.345 7.034l1.53.17zm5.296-6.111l4.197-3.553-2.003-.221-3.763 3.255-.062-.007.4-3.627-1.669-.184-.932 8.433 1.67.184.433-3.921.062.007 2.968 4.297 2.104.233-3.405-4.896zm7.983 5.503c2.439.27 4.168-1.221 4.461-3.877.293-2.656-1.075-4.497-3.506-4.765-2.43-.269-4.176 1.236-4.469 3.884-.293 2.656 1.076 4.49 3.514 4.758zm.155-1.397c-1.429-.158-2.164-1.332-1.961-3.172.203-1.833 1.178-2.833 2.607-2.676 1.429.158 2.155 1.339 1.952 3.18-.204 1.84-1.169 2.825-2.598 2.668zm11.108 1.188l-3.882-.43.007-.061c.456-.5.755-1.355.935-2.35l.604-3.258 2.974.329-.638 5.77zm-5.245 3.012l.245-2.213 6.282.694-.245 2.213 1.553.172.392-3.549-1.32-.146.784-7.097-6.088-.673-.812 4.508c-.203 1.126-.597 2.128-1.261 2.447l-.683-.075-.392 3.548 1.545.171zm8.362.861l1.53.17c1.087-1.083 2.478-3.146 2.856-6.57.379-3.433-.518-5.277-1.451-6.787l-1.476-.163c.651.944 1.569 3.372 1.197 6.742-.371 3.355-1.676 5.278-2.656 6.608zm11.35-.923l.649-5.879.063.007 1.94 5.842 1.235.137 3.177-5.277.062.007-.65 5.878 1.623.18.932-8.434-2.035-.224-3.462 5.937-.062-.007-2.067-6.548-2.096-.232-.932 8.433 1.623.18zm13.578 1.602c2.438.27 4.167-1.222 4.461-3.877.293-2.656-1.076-4.497-3.506-4.766-2.431-.268-4.177 1.236-4.469 3.884-.294 2.656 1.076 4.49 3.514 4.759zm.155-1.398c-1.429-.158-2.164-1.331-1.961-3.172.203-1.832 1.178-2.833 2.607-2.675 1.428.158 2.155 1.338 1.951 3.179-.203 1.84-1.169 2.826-2.597 2.668zm7.79-10.112c-.162 1.468.768 2.577 2.306 2.746 1.545.171 2.696-.708 2.858-2.175l-1.134-.126c-.105.877-.737 1.475-1.622 1.377-.877-.096-1.364-.818-1.274-1.697l-1.134-.125zm-.79 12.198l4.614-5.55.062.007-.661 5.987 1.654.182.932-8.433-1.654-.182-4.612 5.527-.062-.007.659-5.964-1.654-.183-.932 8.433 1.654.183zm13.019-2.295l.167-1.514-5.094-.563-.167 1.514 5.094.563zm6.977 4.504l1.669.185.932-8.433-1.67-.185-.375 3.401-3.875-.428.376-3.401-1.67-.184-.932 8.433 1.67.184.408-3.696 3.875.428-.408 3.696zm7.156.893c2.438.27 4.167-1.222 4.461-3.878.293-2.655-1.076-4.496-3.506-4.765-2.431-.268-4.177 1.236-4.469 3.884-.294 2.656 1.076 4.49 3.514 4.759zm.154-1.398c-1.428-.158-2.163-1.331-1.96-3.172.202-1.832 1.178-2.833 2.606-2.675 1.429.158 2.156 1.338 1.952 3.179-.203 1.84-1.169 2.826-2.598 2.668zm6.97 2.083l.65-5.879.062.007 1.94 5.842 1.235.137 3.177-5.277.062.007-.65 5.878 1.623.18.932-8.434-2.035-.224-3.461 5.937-.063-.007-2.067-6.548-2.096-.232-.932 8.433 1.623.18zm14.28-5.678c1.227.136 1.962 1.097 1.856 2.414l-4.279-.473c.237-1.286 1.212-2.074 2.423-1.94zm1.57 4.93c-.314.711-1.135 1.092-2.113.984-1.382-.153-2.192-1.217-2.031-2.677l.011-.1 5.972.66.065-.591c.282-2.555-1-4.323-3.314-4.58-2.361-.26-4.088 1.286-4.38 3.927-.291 2.64 1.049 4.454 3.495 4.724 1.895.21 3.494-.683 3.902-2.17l-1.607-.178zm8.224-5.215c-1.173-.13-2.277.33-2.851 1.186l-.039-.004.155-1.398-1.623-.18-1.24 11.23 1.685.185.461-4.177.031.003c.402.988 1.298 1.63 2.509 1.763 2.12.234 3.713-1.303 4.001-3.913.289-2.616-.938-4.458-3.089-4.695zm-1.22 7.128c-1.343-.149-2.117-1.398-1.934-3.122.197-1.715 1.233-2.772 2.569-2.625 1.367.151 2.142 1.385 1.95 3.124-.193 1.747-1.218 2.774-2.585 2.623z" fill="#000"/></g></g><g filter="url(#filter1_d)"><rect x="215.185" y="24" width="109" height="29" rx="14.5" transform="rotate(6.304 215.185 24)" fill="#E0E0E0"/><path d="M234.005 42.467l3.261.36.168-1.514-3.262-.36.379-3.432-1.537-.17-.379 3.432-3.262-.36-.167 1.514 3.262.36-.387 3.502 1.537.17.387-3.502zm5.246 4.313l1.824.202 5.941-9.161.166-1.507-7.625-.842-.162 1.468 5.909.652-.004.04-6.049 9.148zm15.658 3.907c-.667-1.512-1.528-3.674-1.158-7.029.374-3.378 1.823-5.536 2.655-6.317l-1.475-.163c-1.248 1.262-2.518 2.874-2.897 6.306-.379 3.425.521 5.74 1.345 7.034l1.53.17zm6.721-1.434l1.67.184.244-2.213 1.538.17.161-1.46-1.538-.17.833-7.532-2.516-.278c-2.927 3.37-4.423 5.241-5.586 6.944l-.168 1.522 5.607.62-.245 2.212zm-3.576-4.13c1.072-1.523 2.399-3.145 4.65-5.734l.031.003-.686 6.212-3.999-.441.004-.04zm11.862 5.257c2.811.31 4.718-1.727 5.132-5.477.145-1.313.034-2.441-.325-3.385-.556-1.586-1.798-2.58-3.46-2.763-2.368-.262-4.272 1.178-4.52 3.422-.235 2.128 1.182 3.88 3.31 4.115 1.444.16 2.705-.44 3.277-1.493l.008.001.008.001.016.002c-.313 2.826-1.516 4.328-3.263 4.135-1.033-.114-1.82-.822-1.982-1.767l-1.748-.193c.138 1.815 1.551 3.182 3.547 3.402zm.667-5.468c-1.359-.15-2.251-1.254-2.103-2.598.144-1.304 1.307-2.221 2.642-2.074a2.36 2.36 0 0 1 2.115 2.631c-.146 1.32-1.28 2.193-2.654 2.041zm9.117 6.549c2.811.31 4.718-1.727 5.133-5.477.144-1.313.033-2.441-.326-3.385-.556-1.586-1.798-2.58-3.46-2.763-2.368-.262-4.272 1.178-4.52 3.422-.235 2.128 1.183 3.88 3.31 4.115 1.445.16 2.706-.44 3.278-1.493l.007.001.008.001.016.002c-.312 2.826-1.516 4.328-3.263 4.135-1.033-.114-1.819-.822-1.982-1.767l-1.747-.193c.137 1.815 1.55 3.181 3.546 3.402zm.667-5.468c-1.359-.15-2.251-1.254-2.102-2.598.144-1.304 1.306-2.221 2.642-2.074a2.36 2.36 0 0 1 2.114 2.631c-.146 1.32-1.28 2.193-2.654 2.041zm4.546 8.009l1.53.169c1.087-1.083 2.478-3.145 2.856-6.57.379-3.432-.517-5.276-1.451-6.786l-1.475-.163c.65.944 1.568 3.372 1.196 6.742-.37 3.355-1.675 5.278-2.656 6.608zm10.867-.89a1.012 1.012 0 0 0 1.13-.905 1.008 1.008 0 0 0-.905-1.13 1.013 1.013 0 0 0-1.13.905 1.017 1.017 0 0 0 .905 1.13zm4.178.461a1.012 1.012 0 0 0 1.129-.905 1.007 1.007 0 0 0-.904-1.13 1.012 1.012 0 0 0-1.13.906 1.017 1.017 0 0 0 .905 1.13zm4.177.462a1.013 1.013 0 0 0 1.13-.905 1.007 1.007 0 0 0-.905-1.13 1.011 1.011 0 0 0-1.129.905 1.017 1.017 0 0 0 .904 1.13z" fill="#000"/></g><g filter="url(#filter2_d)"><rect x="24" y="30.036" width="109" height="29" rx="14.5" transform="rotate(-4.755 24 30.036)" fill="#E0E0E0"/><path d="M46.013 44.55l3.27-.272-.126-1.518-3.27.272-.286-3.441-1.542.128.286 3.441-3.27.272.127 1.518 3.27-.272.292 3.512 1.541-.129-.292-3.511zm5.976 3.227l1.83-.153 4.072-10.13-.125-1.51-7.646.636.122 1.471 5.925-.493.003.04-4.181 10.139zm16.116.83c-.943-1.356-2.204-3.313-2.484-6.676-.281-3.387.727-5.783 1.394-6.709l-1.479.123c-.982 1.477-1.92 3.304-1.634 6.745.286 3.433 1.613 5.534 2.67 6.645l1.533-.127zm6.322-2.697l1.674-.14-.185-2.218 1.542-.128-.122-1.464-1.541.128-.629-7.552-2.522.21c-2.226 3.87-3.335 5.992-4.15 7.887l.127 1.526 5.621-.468.185 2.22zm-4.302-3.366c.76-1.701 1.751-3.548 3.464-6.52l.031-.003.518 6.229-4.01.333-.003-.039zm12.65 2.883c2.818-.234 4.3-2.6 3.986-6.36-.109-1.316-.434-2.402-.968-3.259-.85-1.45-2.26-2.187-3.926-2.049-2.374.198-3.967 1.977-3.78 4.227.178 2.133 1.905 3.58 4.038 3.403 1.449-.12 2.571-.95 2.93-2.094h.009l.007-.001.016-.001c.236 2.834-.657 4.539-2.41 4.684-1.035.087-1.942-.457-2.283-1.354l-1.752.146c.483 1.755 2.132 2.825 4.133 2.658zm-.394-5.494c-1.363.114-2.45-.8-2.562-2.146-.109-1.308.856-2.431 2.195-2.542a2.36 2.36 0 0 1 2.58 2.176c.11 1.324-.835 2.398-2.213 2.512zm10.43 4.66c2.421-.202 3.985-1.94 3.794-4.244-.181-2.18-1.862-3.631-4.019-3.452-1.098.092-1.98.596-2.412 1.346l-.04.003.025-3.475 5.287-.44-.123-1.472-6.688.557-.063 6.402 1.596-.133c.375-.776 1.179-1.29 2.152-1.37 1.401-.117 2.466.814 2.584 2.223.117 1.41-.782 2.48-2.199 2.597-1.253.105-2.274-.579-2.492-1.682l-1.666.139c.265 1.953 2.021 3.187 4.264 3zm5.098 1.535l1.533-.127c.859-1.271 1.829-3.563 1.543-6.996-.286-3.441-1.52-5.079-2.726-6.382l-1.48.123c.82.802 2.187 3.009 2.469 6.388.28 3.363-.633 5.501-1.34 6.994zm10.494-2.958c.576-.048.982-.536.935-1.105a1.008 1.008 0 0 0-1.105-.935 1.012 1.012 0 0 0-.935 1.105c.047.568.536.982 1.105.935zm4.188-.348c.576-.048.983-.537.935-1.105a1.007 1.007 0 0 0-1.104-.935 1.012 1.012 0 0 0-.935 1.105c.047.568.536.982 1.104.935zm4.189-.349c.576-.048.982-.536.935-1.105a1.008 1.008 0 0 0-1.105-.935 1.012 1.012 0 0 0-.935 1.105c.048.569.537.983 1.105.935z" fill="#000"/></g><g filter="url(#filter3_d)"><rect x="75" y="95.937" width="153" height="29" rx="14.5" transform="rotate(-2.974 75 95.937)" fill="#E0E0E0"/><path d="M93.623 114.996l3.659-6.221.062-.004.313 6.016 1.662-.087-.44-8.473-1.662.087-3.66 6.198-.063.003-.31-5.992-1.663.087.44 8.473 1.662-.087zm16.845-2.22l-3.901.202-.003-.062c.37-.567.527-1.459.545-2.469l.07-3.313 2.988-.155.301 5.797zm-4.691 3.818l-.115-2.223 6.312-.328.115 2.224 1.56-.081-.185-3.566-1.326.069-.371-7.131-6.116.318-.075 4.58c-.019 1.143-.246 2.195-.85 2.618l-.687.036.186 3.565 1.552-.081zm12.875-11.48c-1.178.061-2.193.693-2.622 1.631l-.039.002-.073-1.405-1.631.085.587 11.282 1.693-.088-.218-4.198.031-.001c.555.91 1.543 1.398 2.76 1.335 2.13-.111 3.454-1.885 3.318-4.506-.137-2.63-1.645-4.249-3.806-4.137zm-.054 7.232c-1.35.07-2.315-1.038-2.413-2.77-.082-1.724.771-2.934 2.113-3.004 1.373-.071 2.337 1.021 2.428 2.768.091 1.756-.755 2.934-2.128 3.006zm6.581 4.101c1.732-.09 2.501-.787 3.121-2.861l2.715-9.028-1.779.093-1.817 7.041-.039.002-2.536-6.815-1.818.094 3.515 8.337-.11.444c-.242.912-.669 1.278-1.472 1.32a2.922 2.922 0 0 1-.541-.011l.072 1.373c.133.017.548.018.689.011zm12.686-10.899l-.07-1.342-5.594.29.44 8.473 1.677-.087-.37-7.131 3.917-.203zm3.506 6.968l3.659-6.222.063-.003.312 6.015 1.662-.086-.44-8.473-1.662.086-3.66 6.199-.062.003-.312-5.992-1.662.086.441 8.473 1.661-.086zm10.744-7.779c1.233-.064 2.113.767 2.221 2.083l-4.299.223c.026-1.307.861-2.243 2.078-2.306zm2.344 4.611c-.195.754-.944 1.262-1.927 1.313-1.388.072-2.359-.847-2.435-2.314l-.006-.102 6-.311-.031-.593c-.133-2.567-1.684-4.106-4.009-3.985-2.372.123-3.827 1.927-3.689 4.58.138 2.653 1.753 4.227 4.211 4.1 1.903-.099 3.338-1.238 3.501-2.772l-1.615.084zm12.257-5.299l-.069-1.342-5.594.291.44 8.473 1.677-.087-.37-7.131 3.916-.204zm5.213 6.981c2.45-.127 3.916-1.877 3.777-4.546-.138-2.668-1.786-4.264-4.228-4.137-2.442.126-3.923 1.893-3.784 4.554.138 2.668 1.785 4.257 4.235 4.129zm-.073-1.404c-1.435.074-2.35-.965-2.446-2.815-.096-1.841.706-2.985 2.141-3.06 1.436-.075 2.343.974 2.439 2.823.096 1.849-.698 2.977-2.134 3.052zm9.508-7.769c-1.178.061-2.193.692-2.622 1.63l-.039.002-.073-1.404-1.63.084.586 11.282 1.693-.088-.218-4.197.031-.002c.556.91 1.543 1.398 2.761 1.335 2.129-.111 3.453-1.885 3.317-4.506-.136-2.629-1.644-4.249-3.806-4.136zm-.054 7.231c-1.35.07-2.315-1.038-2.413-2.769-.081-1.725.771-2.935 2.113-3.005 1.373-.071 2.337 1.021 2.428 2.769.091 1.755-.755 2.934-2.128 3.005zm9.235.975c2.45-.127 3.915-1.877 3.777-4.546-.139-2.668-1.786-4.264-4.228-4.137-2.442.126-3.923 1.893-3.785 4.554.139 2.668 1.786 4.256 4.236 4.129zm-.073-1.404c-1.436.074-2.35-.965-2.446-2.815-.096-1.841.705-2.985 2.141-3.06 1.435-.075 2.342.974 2.438 2.823.096 1.849-.698 2.977-2.133 3.052zm11.155-.619l-3.901.203-.004-.062c.37-.567.527-1.459.545-2.47l.07-3.312 2.988-.156.302 5.797zm-4.691 3.819l-.116-2.223 6.312-.328.115 2.223 1.561-.081-.185-3.565-1.327.069-.37-7.131-6.117.317-.075 4.581c-.019 1.143-.246 2.195-.85 2.618l-.686.035.185 3.566 1.553-.081zm11.826-4.111c-.976.051-1.632-.385-1.67-1.11-.038-.749.54-1.21 1.691-1.34l2.052-.247.035.663c.058 1.116-.852 1.969-2.108 2.034zm-.383 1.373c1.155-.06 2.178-.692 2.599-1.637l.039-.002.073 1.412 1.615-.084-.302-5.812c-.087-1.678-1.478-2.701-3.546-2.593-1.903.099-3.266 1.28-3.235 2.781l1.584-.082c.11-.742.757-1.252 1.677-1.3 1.131-.059 1.807.438 1.857 1.405l.034.656-2.279.251c-2.084.241-3.187 1.159-3.11 2.642.079 1.513 1.301 2.451 2.994 2.363z" fill="#000"/></g><defs><filter id="filter0_d" x="665" y="-1" width="232.096" height="98.59" filterUnits="userSpaceOnUse" color-interpolation-filters="sRGB"><feFlood flood-opacity="0" result="BackgroundImageFix"/><feColorMatrix in="SourceAlpha" values="0 0 0 0 0 0 0 0 0 0 0 0 0 0 0 0 0 0 127 0"/><feOffset dy="10"/><feGaussianBlur stdDeviation="12.5"/><feColorMatrix values="0 0 0 0 0 0 0 0 0 0 0 0 0 0 0 0 0 0 0.16 0"/><feBlend in2="BackgroundImageFix" result="effect1_dropShadow"/><feBlend in="SourceGraphic" in2="effect1_dropShadow" result="shape"/></filter><filter id="filter1_d" x="187" y="9" width="161.525" height="90.793" filterUnits="userSpaceOnUse" color-interpolation-filters="sRGB"><feFlood flood-opacity="0" result="BackgroundImageFix"/><feColorMatrix in="SourceAlpha" values="0 0 0 0 0 0 0 0 0 0 0 0 0 0 0 0 0 0 127 0"/><feOffset dy="10"/><feGaussianBlur stdDeviation="12.5"/><feColorMatrix values="0 0 0 0 0 0 0 0 0 0 0 0 0 0 0 0 0 0 0.16 0"/><feBlend in2="BackgroundImageFix" result="effect1_dropShadow"/><feBlend in="SourceGraphic" in2="effect1_dropShadow" result="shape"/></filter><filter id="filter2_d" x="-1" y="6" width="161.029" height="87.936" filterUnits="userSpaceOnUse" color-interpolation-filters="sRGB"><feFlood flood-opacity="0" result="BackgroundImageFix"/><feColorMatrix in="SourceAlpha" values="0 0 0 0 0 0 0 0 0 0 0 0 0 0 0 0 0 0 127 0"/><feOffset dy="10"/><feGaussianBlur stdDeviation="12.5"/><feColorMatrix values="0 0 0 0 0 0 0 0 0 0 0 0 0 0 0 0 0 0 0.16 0"/><feBlend in2="BackgroundImageFix" result="effect1_dropShadow"/><feBlend in="SourceGraphic" in2="effect1_dropShadow" result="shape"/></filter><filter id="filter3_d" x="50" y="72.999" width="204.298" height="86.898" filterUnits="userSpaceOnUse" color-interpolation-filters="sRGB"><feFlood flood-opacity="0" result="BackgroundImageFix"/><feColorMatrix in="SourceAlpha" values="0 0 0 0 0 0 0 0 0 0 0 0 0 0 0 0 0 0 127 0"/><feOffset dy="10"/><feGaussianBlur stdDeviation="12.5"/><feColorMatrix values="0 0 0 0 0 0 0 0 0 0 0 0 0 0 0 0 0 0 0.16 0"/><feBlend in2="BackgroundImageFix" result="effect1_dropShadow"/><feBlend in="SourceGraphic" in2="effect1_dropShadow" result="shape"/></filter><linearGradient id="paint0_linear" x1="727.5" y1="196.5" x2="501.5" y2="341" gradientUnits="userSpaceOnUse"><stop stop-color="#fff"/><stop offset=".916" stop-color="#fff" stop-opacity="0"/></linearGradient><clipPath id="clip0"><path fill="#fff" transform="translate(512 260)" d="M0 0h30v30H0z"/></clipPath><clipPath id="clip1"><rect x="693.185" y="14" width="180" height="29" rx="14.5" transform="rotate(6.304 693.185 14)" fill="#fff"/></clipPath></defs></svg>