<svg width="56" height="56" fill="none" xmlns="http://www.w3.org/2000/svg"><path d="M49.875 42h-1.75v-2.117a4.387 4.387 0 0 0 2.625-4.008v-3.5A4.375 4.375 0 0 0 46.375 28h-1.75a4.375 4.375 0 0 0-4.375 4.375v3.5a4.388 4.388 0 0 0 2.625 4.008V42h-1.75a4.375 4.375 0 0 0-4.375 4.375v7a.875.875 0 0 0 .875.875h15.75a.875.875 0 0 0 .875-.875v-7A4.375 4.375 0 0 0 49.875 42zm-5.25-12.25h1.75A2.633 2.633 0 0 1 49 32.375h-1.391l-.613-.621a.88.88 0 0 0-.901-.21l-2.485.831H42a2.633 2.633 0 0 1 2.625-2.625zM42 35.875v-1.75h1.75c.095-.002.19-.016.28-.044l2.109-.709.49.5a.91.91 0 0 0 .621.253H49v1.75a2.633 2.633 0 0 1-2.625 2.625h-1.75A2.633 2.633 0 0 1 42 35.875zm4.375 4.375V42h-1.75v-1.75h1.75zm2.284 3.5l-1.164 3.5h-3.99l-1.164-3.5h6.318zM52.5 52.5h-14v-6.125a2.618 2.618 0 0 1 2.021-2.546l1.523 4.576a.887.887 0 0 0 .831.595h5.25a.886.886 0 0 0 .831-.595l1.523-4.576a2.618 2.618 0 0 1 2.021 2.546V52.5zM14.875 15.75h-1.75v-2.117a4.387 4.387 0 0 0 2.625-4.008v-3.5a4.375 4.375 0 0 0-4.375-4.375h-1.75A4.375 4.375 0 0 0 5.25 6.125v3.5a4.387 4.387 0 0 0 2.625 4.008v2.117h-1.75a4.375 4.375 0 0 0-4.375 4.375v7a.875.875 0 0 0 .875.875h15.75a.875.875 0 0 0 .875-.875v-7a4.375 4.375 0 0 0-4.375-4.375zM9.625 3.5h1.75A2.633 2.633 0 0 1 14 6.125h-1.391l-.613-.621a.881.881 0 0 0-.901-.21l-2.485.831H7A2.633 2.633 0 0 1 9.625 3.5zM7 9.625v-1.75h1.75c.095-.002.19-.016.28-.044l2.109-.709.49.5a.91.91 0 0 0 .621.253H14v1.75a2.633 2.633 0 0 1-2.625 2.625h-1.75A2.633 2.633 0 0 1 7 9.625zM11.375 14v1.75h-1.75V14h1.75zm2.284 3.5L12.495 21h-3.99l-1.164-3.5h6.318zm3.841 8.75h-14v-6.125a2.618 2.618 0 0 1 2.021-2.546l1.523 4.576a.887.887 0 0 0 .831.595h5.25a.886.886 0 0 0 .831-.595l1.523-4.576a2.618 2.618 0 0 1 2.021 2.546v6.125zm5.25 22.907v-8.032a2.633 2.633 0 0 0-2.625-2.625h-14A2.633 2.633 0 0 0 3.5 41.125v8.032a2.625 2.625 0 0 0 .875 5.093h17.5a2.626 2.626 0 0 0 .875-5.093zm-17.5-8.032a.875.875 0 0 1 .875-.875h14a.875.875 0 0 1 .875.875V49h-6.125a.875.875 0 0 0-.875.875h-1.75a.875.875 0 0 0-.875-.875H5.25v-7.875zM21.875 52.5h-17.5a.875.875 0 0 1 0-1.75H10.5a.875.875 0 0 0 .875.875h3.5a.875.875 0 0 0 .875-.875h6.125a.875.875 0 1 1 0 1.75z" fill="#F8CA21"/><path d="M12.25 43.75H14v1.75h-1.75v-1.75zm3.5 0h1.75v1.75h-1.75v-1.75zm-7 0h1.75v1.75H8.75v-1.75zM52.5 12.408V4.375a2.633 2.633 0 0 0-2.625-2.625h-14a2.633 2.633 0 0 0-2.625 2.625v8.033a2.625 2.625 0 0 0 .875 5.092h17.5a2.625 2.625 0 0 0 .875-5.092zM35 4.375a.875.875 0 0 1 .875-.875h14a.875.875 0 0 1 .875.875v7.875h-6.125a.875.875 0 0 0-.875.875H42a.875.875 0 0 0-.875-.875H35V4.375zM51.625 15.75h-17.5a.875.875 0 0 1 0-1.75h6.125a.875.875 0 0 0 .875.875h3.5A.875.875 0 0 0 45.5 14h6.125a.875.875 0 0 1 0 1.75z" fill="#F8CA21"/><path d="M42 7h1.75v1.75H42V7zm3.5 0h1.75v1.75H45.5V7zm-7 0h1.75v1.75H38.5V7zM10.07 37.148l1.558-.796a18.188 18.188 0 0 1-1.925-6.68l-1.743.157a19.95 19.95 0 0 0 2.11 7.32zm14.589 8.924l-.317 1.721c1.207.221 2.431.332 3.658.332a20.037 20.037 0 0 0 7.319-1.372l-.637-1.631a18.538 18.538 0 0 1-10.024.95zM46.3 26.329l1.743-.158a19.924 19.924 0 0 0-2.114-7.32l-1.558.797a18.17 18.17 0 0 1 1.929 6.68zM28 9.625c1.12 0 2.24.101 3.342.303l.317-1.721A20.269 20.269 0 0 0 28 7.875a20.044 20.044 0 0 0-10.977 3.256l.955 1.469A18.298 18.298 0 0 1 28 9.625z" fill="#F8CA21"/></svg>