<svg width="20" height="20" fill="none" xmlns="http://www.w3.org/2000/svg"><g clip-path="url(#clip0)" fill-rule="evenodd" clip-rule="evenodd" fill="#FFC800"><path d="M5.508 1.677A6.912 6.912 0 0 1 10 0c3.363 0 6.154 2.5 6.457 5.724C18.447 6.005 20 7.67 20 9.716c0 2.245-1.872 4.034-4.141 4.034H12.5a.624.624 0 1 1 0-1.25h3.36c1.614 0 2.89-1.265 2.89-2.784 0-1.52-1.275-2.785-2.891-2.785h-.625v-.625C15.235 3.531 12.91 1.25 10 1.25a5.662 5.662 0 0 0-3.676 1.375c-.946.815-1.441 1.798-1.441 2.569v.56l-.557.061C2.58 6.006 1.25 7.44 1.25 9.148c0 1.833 1.538 3.352 3.476 3.352H7.5a.625.625 0 1 1 0 1.25H4.726C2.135 13.75 0 11.707 0 9.148c0-2.204 1.583-4.03 3.678-4.492.178-1.078.872-2.153 1.83-2.978z"/><path d="M9.557 19.817a.625.625 0 0 0 .885 0l3.75-3.75a.626.626 0 1 0-.885-.885l-2.682 2.684V6.875a.625.625 0 1 0-1.25 0v10.991l-2.683-2.684a.626.626 0 1 0-.885.885l3.75 3.75z"/></g><defs><clipPath id="clip0"><path fill="#fff" d="M0 0h20v20H0z"/></clipPath></defs></svg>