<svg width="22" height="22" fill="none" xmlns="http://www.w3.org/2000/svg"><path d="M11 1.375c-5.315 0-9.625 4.31-9.625 9.625s4.31 9.625 9.625 9.625 9.625-4.31 9.625-9.625S16.315 1.375 11 1.375zm0 15.21a.86.86 0 1 1 0-1.717.86.86 0 0 1 0 1.718zm1.351-4.715a1.038 1.038 0 0 0-.664.963v.487a.172.172 0 0 1-.171.172h-1.032a.172.172 0 0 1-.171-.172v-.462a2.402 2.402 0 0 1 1.547-2.273c.73-.281 1.203-.893 1.203-1.562 0-.947-.927-1.718-2.063-1.718-1.137 0-2.063.771-2.063 1.718v.164a.172.172 0 0 1-.171.172H7.734a.172.172 0 0 1-.171-.172v-.164c0-.844.369-1.632 1.04-2.219.644-.565 1.495-.874 2.397-.874.902 0 1.753.311 2.398.874.67.587 1.04 1.375 1.04 2.22 0 1.241-.82 2.358-2.087 2.846z" fill="#C9C9C9"/></svg>