<svg xmlns="http://www.w3.org/2000/svg" viewBox="0 0 100 46"><linearGradient id="a" gradientUnits="userSpaceOnUse" x1="5.506" y1="-5.635" x2="21.843" y2="52.143"><stop offset="0" stop-color="#f8af19"/><stop offset="1" stop-color="#ef791b"/></linearGradient><path d="M13.3 37.9c1.6 0 3-1.3 3-3s-1.3-3-3-3c-1.6 0-3 1.3-3 3s1.4 3 3 3zm2.7-8c1.6 0 3-1.3 3-3s-1.3-3-3-3c-1.6 0-3 1.3-3 3s1.4 3 3 3zm2.8-7.9c1.6 0 3-1.3 3-3s-1.3-3-3-3-3 1.3-3 3 1.4 3 3 3zm2.7-7.9c1.6 0 3-1.3 3-3 0-1.6-1.3-3-3-3s-3 1.3-3 3c.1 1.6 1.4 3 3 3zm2.7-8c1.6 0 3-1.3 3-3s-1.3-3-3-3-3 1.3-3 3 1.4 3 3 3zM3 45.8c1.6 0 3-1.3 3-3s-1.3-3-3-3-3 1.3-3 3 1.3 3 3 3zm2.7-7.9c1.6 0 3-1.3 3-3s-1.3-3-3-3-3 1.3-3 3 1.3 3 3 3zm2.7-8c1.6 0 3-1.3 3-3s-1.3-3-3-3-3 1.3-3 3 1.3 3 3 3zm2.8-7.9c1.6 0 3-1.3 3-3s-1.3-3-3-3-3 1.3-3 3 1.4 3 3 3zm2.7-7.9c1.6 0 3-1.3 3-3 0-1.6-1.3-3-3-3-1.6 0-3 1.3-3 3 0 1.6 1.3 3 3 3zm2.7-8c1.6 0 3-1.3 3-3s-1.3-3-3-3-3 1.3-3 3 1.3 3 3 3zm-10.4 8c1.6 0 3-1.3 3-3 0-1.6-1.3-3-3-3s-3 1.3-3 3c.1 1.6 1.4 3 3 3z" fill-rule="evenodd" clip-rule="evenodd" fill="url(#a)"/><path d="M75.9 24.5c0 7.7 5.3 13.5 13.7 13.5 4.8 0 8.2-2 10.5-4.4L96.7 29c-1.8 1.8-4.3 3.2-6.9 3.2-5 0-7.4-4-7.4-7.8s2.1-7.4 7.4-7.4c2.3 0 4.8 1.2 6.5 2.7l2.9-4.8c-2.5-2.5-6.3-3.7-9.8-3.7-7.9-.1-13.5 5.7-13.5 13.3zM59.8 37.6h6.4V17H74v-5.5H51.9V17h7.9v20.6zM36.7 27l1.5-5.1c.5-1.6 1.1-4.5 1.1-4.5h.1s.6 2.8 1.1 4.5L42 27h-5.3zm-9.6 10.6h6.6l1.6-5.5h8.1l1.6 5.5h6.6l-8.8-26h-6.7l-9 26z" fill-rule="evenodd" clip-rule="evenodd" fill="#fff"/></svg>