<svg width="60" height="60" fill="none" xmlns="http://www.w3.org/2000/svg"><path d="M15.122 0a1.172 1.172 0 0 0 0 2.344c6.62 0 12.006 5.526 12.006 12.318a1.172 1.172 0 0 0 2.344 0C29.472 6.577 23.034 0 15.122 0z" fill="#F8CA21"/><path d="M15.118 5.56a1.172 1.172 0 0 0 0 2.344c3.625 0 6.574 3.032 6.574 6.758a1.172 1.172 0 0 0 2.344 0c0-5.019-4-9.102-8.918-9.102z" fill="#F8CA21"/><path d="M15.14 10.682a1.172 1.172 0 1 0 0 2.344c.847 0 1.536.718 1.536 1.6a1.172 1.172 0 0 0 2.344 0c0-2.175-1.74-3.944-3.88-3.944zm38.59-1.393h-2.598a1.172 1.172 0 0 0 0 2.344h2.597a3.93 3.93 0 0 1 3.927 3.926v15.91a3.92 3.92 0 0 1-1.494 3.077v-3.064a4.97 4.97 0 0 0-4.056-4.884l-.758-.14c.17-.519.262-1.07.262-1.644V22.12a5.317 5.317 0 0 0-5.311-5.31 5.317 5.317 0 0 0-5.31 5.31v2.694c0 .573.092 1.125.26 1.643l-.757.141a4.969 4.969 0 0 0-4.057 4.884v3.397a3.928 3.928 0 0 1-1.985-3.41v-15.91a3.93 3.93 0 0 1 3.926-3.926h2.794a1.172 1.172 0 0 0 0-2.344h-2.794a6.277 6.277 0 0 0-6.27 6.27v15.91a6.277 6.277 0 0 0 6.27 6.27h5.898v3.37a1.172 1.172 0 0 0 1.998.83l4.228-4.2h3.23a6.277 6.277 0 0 0 6.27-6.27v-15.91a6.277 6.277 0 0 0-6.27-6.27zM43.331 22.12a2.97 2.97 0 0 1 2.967-2.966 2.97 2.97 0 0 1 2.967 2.966v2.694a2.97 2.97 0 0 1-2.967 2.966 2.97 2.97 0 0 1-2.967-2.966V22.12zm10.486 13.272l-.089.002h-3.713c-.31 0-.606.123-.826.341l-2.572 2.556v-1.724c0-.648-.525-1.172-1.172-1.172h-6.667V31.48c0-1.262.901-2.347 2.143-2.579l1.652-.308a5.292 5.292 0 0 0 3.725 1.53 5.29 5.29 0 0 0 3.725-1.53l1.652.308a2.624 2.624 0 0 1 2.142 2.58v3.91z" fill="#F8CA21"/><path d="M46.412 9.633a1.175 1.175 0 0 0-1.657 0c-.218.217-.343.52-.343.828 0 .309.125.611.343.829.218.218.52.343.829.343.308 0 .61-.125.828-.343.218-.22.344-.52.344-.829 0-.309-.126-.61-.344-.828zm-24.63 29.793a1.179 1.179 0 0 0-.828-.343c-.309 0-.61.125-.829.343a1.18 1.18 0 0 0-.343.829 1.176 1.176 0 0 0 1.172 1.173 1.177 1.177 0 0 0 1.172-1.173c0-.308-.125-.61-.344-.829z" fill="#F8CA21"/><path d="M47.435 50.024l-8.979-8.98a3.518 3.518 0 0 0-4.47-.415l-5.73 3.918a1.172 1.172 0 0 1-1.491-.139l-1.895-1.895a1.173 1.173 0 0 0-1.658 1.658l1.895 1.895a3.518 3.518 0 0 0 4.471.416l5.73-3.918a1.172 1.172 0 0 1 1.49.138l8.98 8.98c.457.456.457 1.2 0 1.657-5.758 5.758-15.126 5.758-20.884 0L6.662 35.106a14.67 14.67 0 0 1-4.325-10.441 14.67 14.67 0 0 1 4.325-10.443c.221-.221.515-.343.828-.343.314 0 .608.122.83.343l8.978 8.98c.398.398.457 1.025.139 1.49l-3.918 5.73a3.518 3.518 0 0 0 .416 4.471l2.848 2.849a1.173 1.173 0 0 0 1.658-1.658l-2.849-2.849a1.172 1.172 0 0 1-.138-1.49l3.918-5.73a3.518 3.518 0 0 0-.416-4.471l-8.98-8.98a3.52 3.52 0 0 0-4.972 0c-6.671 6.673-6.671 17.528 0 24.2l18.232 18.232A17.058 17.058 0 0 0 35.336 60c4.382 0 8.764-1.668 12.1-5.004a3.52 3.52 0 0 0 0-4.972z" fill="#F8CA21"/><path d="M15.788 28.819l-7.105-7.105a1.173 1.173 0 0 0-1.657 1.658l7.104 7.104a1.169 1.169 0 0 0 1.658 0 1.17 1.17 0 0 0 0-1.657zM42.98 56.01l-7.476-7.475a1.173 1.173 0 0 0-1.657 1.657l7.475 7.476a1.169 1.169 0 0 0 1.657 0c.458-.458.458-1.2 0-1.658z" fill="#F8CA21"/></svg>