<svg width="40" height="40" fill="none" xmlns="http://www.w3.org/2000/svg"><path d="M35.388 6.774A1.345 1.345 0 0 0 34.05 5.56H5.913v.003a1.342 1.342 0 0 0-1.298 1.211H4.6v22.537h.027a1.348 1.348 0 0 0 1.286 1.078v.003h4.626v2.698a1.35 1.35 0 0 0 2.469.752l3.45-3.45H34.05a1.35 1.35 0 0 0 1.323-1.081h.027V6.774h-.014zM11.36 20.264c-1.222 0-2.315-.962-2.315-2.652 0-1.951 1.067-3.694 2.68-4.838l.005.005a.285.285 0 0 1 .13-.034.284.284 0 0 1 .172.062l.003-.003 1.081.682-.006.006c.076.053.13.136.13.236a.288.288 0 0 1-.156.254l-.018.012-.005.002c-.826.45-1.704 1.49-1.935 2.419.104-.052.312-.078.52-.078.989 0 1.768.754 1.768 1.872a2.076 2.076 0 0 1-2.054 2.056zm5.293 0c-1.222 0-2.315-.962-2.315-2.652 0-1.951 1.067-3.694 2.68-4.838l.005.005a.285.285 0 0 1 .13-.034.284.284 0 0 1 .172.062l.003-.003 1.081.682-.006.006c.077.053.13.136.13.236a.288.288 0 0 1-.156.254l-.018.012-.005.002c-.826.45-1.704 1.49-1.935 2.419.104-.052.312-.078.52-.078.989 0 1.769.754 1.769 1.872a2.076 2.076 0 0 1-2.055 2.056zm6.33 2.875l-.006-.005a.285.285 0 0 1-.13.035.284.284 0 0 1-.172-.063l-.003.003-1.081-.683.006-.005a.284.284 0 0 1-.13-.236.29.29 0 0 1 .156-.254l.018-.012.005-.003c.826-.45 1.704-1.49 1.935-2.418-.104.052-.312.078-.52.078-.989 0-1.768-.754-1.768-1.872 0-1.12.936-2.055 2.055-2.055 1.222 0 2.314.962 2.314 2.653 0 1.95-1.067 3.693-2.68 4.837zm5.293 0l-.006-.005a.285.285 0 0 1-.13.035.284.284 0 0 1-.171-.063l-.004.003-1.08-.683.006-.005a.284.284 0 0 1-.13-.236c0-.111.064-.205.155-.254l.018-.012.005-.003c.826-.45 1.704-1.49 1.935-2.418-.104.052-.311.078-.52.078-.988 0-1.768-.754-1.768-1.872 0-1.12.936-2.055 2.055-2.055 1.222 0 2.315.962 2.315 2.653 0 1.95-1.067 3.693-2.68 4.837z" fill="#F8CA21"/></svg>