<svg width="32" height="32" fill="none" xmlns="http://www.w3.org/2000/svg"><path d="M16 12.475a2.715 2.715 0 0 0-2.712 2.712A2.715 2.715 0 0 0 16 17.898a2.715 2.715 0 0 0 2.712-2.711A2.715 2.715 0 0 0 16 12.475zm0 4.339a1.63 1.63 0 0 1-1.627-1.628c0-.897.73-1.627 1.627-1.627s1.627.73 1.627 1.627A1.63 1.63 0 0 1 16 16.814z" fill="#fff"/><path d="M16 8.678a6.516 6.516 0 0 0-6.508 6.508 6.48 6.48 0 0 0 1.057 3.551.543.543 0 0 0 .909-.593 5.4 5.4 0 0 1-.882-2.958A5.43 5.43 0 0 1 16 9.763a5.43 5.43 0 0 1 5.424 5.423 5.398 5.398 0 0 1-.882 2.958.543.543 0 0 0 .909.593 6.48 6.48 0 0 0 1.057-3.55A6.515 6.515 0 0 0 16 8.677z" fill="#fff"/><path d="M16 4.34c-5.981 0-10.848 4.865-10.848 10.847 0 1.928.523 3.833 1.513 5.506a.543.543 0 0 0 .934-.552 9.746 9.746 0 0 1-1.362-4.954c0-5.384 4.38-9.763 9.763-9.763s9.762 4.38 9.762 9.763a9.75 9.75 0 0 1-1.279 4.818.542.542 0 1 0 .943.537 10.841 10.841 0 0 0 1.421-5.355c0-5.982-4.866-10.848-10.847-10.848z" fill="#fff"/><path d="M16 0C7.626 0 .813 6.812.813 15.186c0 2.388.542 4.677 1.611 6.805a.541.541 0 1 0 .97-.486 13.95 13.95 0 0 1-1.496-6.319C1.898 7.411 8.224 1.085 16 1.085c7.776 0 14.102 6.326 14.102 14.101 0 2.164-.479 4.243-1.423 6.177a.542.542 0 1 0 .975.475 15.039 15.039 0 0 0 1.532-6.652C31.186 6.812 24.374 0 16 0z" fill="#fff"/><path d="M16 16.814c-.3 0-.543.242-.543.542v14.101a.542.542 0 0 0 1.085 0V17.356c0-.3-.243-.543-.542-.543z" fill="#fff"/></svg>