<?xml version="1.0" standalone="no"?>
<!DOCTYPE svg PUBLIC "-//W3C//DTD SVG 20010904//EN"
 "http://www.w3.org/TR/2001/REC-SVG-20010904/DTD/svg10.dtd">
<svg version="1.0" xmlns="http://www.w3.org/2000/svg"
 width="800.000000pt" height="800.000000pt" viewBox="0 0 800.000000 800.000000"
 preserveAspectRatio="xMidYMid meet">
<metadata>
Created by potrace 1.11, written by Peter Selinger 2001-2013
</metadata>
<g transform="translate(0.000000,800.000000) scale(0.100000,-0.100000)"
fill="#000000" stroke="none">
<path d="M4195 6536 c-128 -60 -197 -175 -191 -319 6 -164 135 -298 300 -314
150 -14 282 62 345 197 36 78 36 191 -1 270 -32 70 -95 135 -161 166 -74 34
-219 35 -292 0z"/>
<path d="M5064 6536 c-66 -31 -131 -97 -163 -166 -36 -79 -36 -192 1 -271 33
-72 94 -134 167 -168 48 -22 69 -26 146 -26 96 1 136 15 213 72 36 27 94 111
106 153 40 141 -9 292 -122 373 -65 47 -101 57 -206 57 -75 0 -100 -4 -142
-24z"/>
<path d="M3087 5668 c-98 -21 -197 -102 -239 -196 -32 -69 -30 -198 2 -267 35
-74 113 -147 184 -174 181 -67 366 12 441 189 48 111 17 266 -68 350 -86 86
-207 123 -320 98z"/>
<path d="M3960 5666 c-160 -33 -274 -181 -265 -343 10 -178 154 -314 333 -315
110 -1 187 34 260 117 106 120 109 291 9 426 -68 93 -209 141 -337 115z"/>
<path d="M4835 5670 c-189 -42 -308 -234 -258 -415 42 -148 169 -245 323 -247
175 -2 316 119 338 290 21 162 -74 312 -229 361 -45 14 -134 20 -174 11z"/>
<path d="M3680 4778 c-218 -33 -347 -248 -271 -450 47 -121 169 -209 298 -214
264 -9 433 244 322 480 -42 90 -144 166 -244 182 -22 3 -42 7 -45 8 -3 1 -30
-1 -60 -6z"/>
<path d="M4557 4778 c-165 -22 -283 -145 -295 -307 -17 -237 205 -411 438
-345 39 11 118 61 146 92 14 15 39 56 56 91 59 120 37 260 -54 363 -53 58
-114 89 -223 112 -5 1 -36 -1 -68 -6z"/>
<path d="M3310 3875 c-107 -34 -165 -85 -213 -184 -60 -125 -32 -281 67 -374
173 -164 452 -113 549 101 30 67 32 189 5 259 -27 69 -103 147 -175 180 -65
30 -172 38 -233 18z"/>
<path d="M4185 3877 c-178 -59 -275 -213 -243 -388 32 -177 216 -300 395 -263
78 16 128 42 180 95 124 125 127 329 7 459 -79 85 -236 130 -339 97z"/>
<path d="M3025 2985 c-97 -22 -169 -73 -218 -153 -114 -187 -21 -426 190 -492
249 -77 490 150 426 401 -44 174 -223 284 -398 244z"/>
<path d="M3887 2983 c-229 -51 -333 -332 -193 -521 128 -174 394 -182 533 -17
101 121 104 295 7 422 -74 98 -218 146 -347 116z"/>
<path d="M2689 2085 c-67 -24 -104 -47 -145 -90 -63 -66 -78 -105 -82 -217 -3
-87 -1 -103 21 -152 35 -76 79 -121 156 -159 58 -28 75 -32 151 -32 74 0 93 4
144 29 75 37 131 93 164 165 38 80 38 192 0 272 -55 120 -165 191 -298 195
-42 1 -91 -3 -111 -11z"/>
</g>
</svg>
