<svg width="685" height="890" fill="none" xmlns="http://www.w3.org/2000/svg"><path opacity=".1" d="M430.822 578.525c0 43.957-36.234 77.6-77.66 77.6-41.426 0-77.661-33.643-77.661-77.6 0-43.958 36.235-77.601 77.661-77.601 44.038 0 77.66 33.6 77.66 77.601zm71.695-212.268c0 43.958-36.235 77.601-77.661 77.601s-77.66-33.643-77.66-77.601c0-43.957 36.234-77.6 77.66-77.6 44.038 0 77.661 33.6 77.661 77.6zm74.35-209.613c0 43.957-36.235 77.6-77.661 77.6s-77.66-33.643-77.66-77.6c0-44.001 33.622-77.6 77.66-77.6s77.661 33.599 77.661 77.6zM157.321 728.138c0 43.958-36.234 77.6-77.66 77.6-44.038 0-77.661-33.599-77.661-77.6s33.623-77.6 77.66-77.6c44.038 0 77.661 33.599 77.661 77.6zm71.695-149.613c0 43.957-36.235 77.6-77.661 77.6-44.038 0-77.66-33.6-77.66-77.6 0-44.001 33.622-77.601 77.66-77.601s77.661 33.6 77.661 77.601zm71.694-212.268c0 43.958-36.234 77.601-77.66 77.601-44.038 0-77.661-33.6-77.661-77.601 0-44 33.623-77.6 77.661-77.6 44.037 0 77.66 33.6 77.66 77.6zm74.35-209.613c0 43.957-36.235 77.6-77.661 77.6s-77.66-33.643-77.66-77.6c0-44.001 33.623-77.6 77.66-77.6 44.038 0 77.661 33.599 77.661 77.6z" stroke="#F8AF19" stroke-width="4"/><path opacity=".1" fill-rule="evenodd" clip-rule="evenodd" d="M361.598 627.807c40.451 0 75.845-32.815 75.845-75.727 0-42.912-32.866-75.727-75.845-75.727-40.452 0-75.846 32.815-75.846 75.727 0 42.912 35.394 75.727 75.846 75.727zm68.261-201.939c40.451 0 75.846-32.815 75.846-75.727 0-42.912-32.867-75.727-75.846-75.727-40.451 0-75.846 32.815-75.846 75.727 0 42.912 35.395 75.727 75.846 75.727zm70.789-199.414c40.451 0 75.846-32.815 75.846-75.727 0-42.912-32.867-75.727-75.846-75.727-42.979 0-75.846 32.815-75.846 75.727 0 42.912 35.395 75.727 75.846 75.727zM101.193 797.221c40.452 0 75.846-32.815 75.846-75.727 0-42.912-32.866-75.727-75.846-75.727-42.979 0-75.845 32.815-75.845 75.727 0 42.912 32.866 75.727 75.845 75.727zm68.262-169.414c40.451 0 75.846-32.815 75.846-75.727 0-42.912-32.867-75.727-75.846-75.727-42.98 0-75.846 32.815-75.846 75.727 0 42.912 32.866 75.727 75.846 75.727zm68.261-201.939c40.451 0 75.846-32.815 75.846-75.727 0-42.912-32.867-75.727-75.846-75.727-42.979 0-75.846 32.815-75.846 75.727 0 42.912 32.867 75.727 75.846 75.727zm70.789-199.414c40.452 0 75.846-32.815 75.846-75.727 0-42.912-32.866-75.727-75.846-75.727-42.979 0-75.845 32.815-75.845 75.727 0 42.912 35.394 75.727 75.845 75.727z" fill="url(#paint0_linear)"/><defs><linearGradient id="paint0_linear" x1="164.545" y1="-471.125" x2="576.386" y2="987.672" gradientUnits="userSpaceOnUse"><stop stop-color="#F8AF19"/><stop offset="1" stop-color="#EF791B"/></linearGradient></defs></svg>