<svg width="335" height="384" fill="none" xmlns="http://www.w3.org/2000/svg"><path opacity=".1" d="M97.966 331.397c0 28.947 23.85 51.103 51.118 51.103 27.267 0 51.118-22.156 51.118-51.103 0-28.947-23.851-51.102-51.118-51.102-28.989 0-51.118 22.123-51.118 51.102zM50.61 191.123c0 28.947 23.85 51.103 51.118 51.103 27.267 0 51.118-22.156 51.118-51.103 0-28.947-23.851-51.102-51.118-51.102-28.989 0-51.118 22.123-51.118 51.102zM1.5 52.603c0 28.947 23.85 51.102 51.118 51.102 27.267 0 51.118-22.155 51.118-51.102 0-28.98-22.13-51.103-51.118-51.103C23.629 1.5 1.5 23.623 1.5 52.603zm229.764 278.794c0 28.947 23.851 51.103 51.118 51.103 28.989 0 51.118-22.123 51.118-51.103 0-28.979-22.129-51.102-51.118-51.102s-51.118 22.123-51.118 51.102zm-47.356-140.274c0 28.947 23.851 51.103 51.118 51.103 28.989 0 51.118-22.123 51.118-51.103 0-28.979-22.129-51.102-51.118-51.102s-51.118 22.123-51.118 51.102zm-49.11-138.52c0 28.947 23.851 51.102 51.118 51.102 27.268 0 51.118-22.155 51.118-51.102 0-28.98-22.129-51.103-51.118-51.103s-51.118 22.123-51.118 51.103z" stroke="#F8AF19" stroke-width="3"/></svg>